<?xml version="1.0" encoding="UTF-8" standalone="no"?>
<!-- Created with Inkscape (http://www.inkscape.org/) -->

<svg
   xmlns:dc="http://purl.org/dc/elements/1.1/"
   xmlns:cc="http://creativecommons.org/ns#"
   xmlns:rdf="http://www.w3.org/1999/02/22-rdf-syntax-ns#"
   xmlns:svg="http://www.w3.org/2000/svg"
   xmlns="http://www.w3.org/2000/svg"
   xmlns:sodipodi="http://sodipodi.sourceforge.net/DTD/sodipodi-0.dtd"
   xmlns:inkscape="http://www.inkscape.org/namespaces/inkscape"
   width="30"
   height="30"
   viewBox="0 0 7.9374998 7.9375002"
   version="1.1"
   id="svg8"
   inkscape:version="0.92.0 r15299"
   sodipodi:docname="zijememedem_logo.svg">
  <defs
     id="defs2">
    <clipPath
       id="clipPath3700"
       clipPathUnits="userSpaceOnUse">
      <path
         inkscape:connector-curvature="0"
         id="path3698"
         d="M 0,141.732 H 141.732 V 0 H 0 Z" />
    </clipPath>
  </defs>
  <sodipodi:namedview
     id="base"
     pagecolor="#ffffff"
     bordercolor="#666666"
     borderopacity="1.0"
     inkscape:pageopacity="0.0"
     inkscape:pageshadow="2"
     inkscape:zoom="15.839192"
     inkscape:cx="-6.5263779"
     inkscape:cy="9.4007229"
     inkscape:document-units="mm"
     inkscape:current-layer="g3688"
     showgrid="false"
     units="px"
     inkscape:window-width="1920"
     inkscape:window-height="1017"
     inkscape:window-x="1912"
     inkscape:window-y="-8"
     inkscape:window-maximized="1" />
  <metadata
     id="metadata5">
    <rdf:RDF>
      <cc:Work
         rdf:about="">
        <dc:format>image/svg+xml</dc:format>
        <dc:type
           rdf:resource="http://purl.org/dc/dcmitype/StillImage" />
        <dc:title />
      </cc:Work>
    </rdf:RDF>
  </metadata>
  <g
     inkscape:label="Vrstva 1"
     inkscape:groupmode="layer"
     id="layer1"
     transform="translate(0,-289.06248)">
    <g
       transform="matrix(0.0683583,0,0,-0.0683583,-0.87554316,297.87551)"
       inkscape:label="ZijemeMedem_LOGO_COLOR"
       id="g3688"
       style="fill:#2e2e2e;fill-opacity:1;stroke:none;stroke-opacity:1">
      <g
         transform="translate(70.8662,13.265)"
         id="g3690"
         style="display:inline;fill:#feda00;fill-opacity:1;stroke:none;stroke-opacity:1"
         inkscape:label="pozadi">
        <path
           inkscape:connector-curvature="0"
           id="path3692"
           style="display:inline;fill:#feda00;fill-opacity:1;fill-rule:nonzero;stroke:none;stroke-width:0.94121611;stroke-opacity:1"
           d="M 0,3.3860098 -46.951625,30.493975 v 54.21405 L 0,111.81599 46.951625,84.708025 v -54.21405 z" />
      </g>
      <g
         id="g3694"
         style="display:inline;fill:#6b1a00;fill-opacity:1;stroke:none;stroke-opacity:1">
        <g
           clip-path="url(#clipPath3700)"
           id="g3696"
           style="display:inline;fill:#6b1a00;fill-opacity:1;stroke:none;stroke-opacity:1">
          <g
             transform="translate(63.5674,76.3241)"
             id="g3702"
             style="display:inline;fill:#6b1a00;fill-opacity:1;stroke:none;stroke-opacity:1"
             inkscape:label="včela">
            <path
               inkscape:connector-curvature="0"
               id="path3704"
               style="fill:#6b1a00;fill-opacity:1;fill-rule:nonzero;stroke:none;stroke-opacity:1"
               d="m 0,0 c 0.58,2.162 1.231,4.305 2.031,6.388 0.783,2.088 1.718,4.111 2.753,6.06 1.03,1.953 2.217,3.794 3.534,5.567 2.637,3.506 5.807,6.674 9.656,8.689 1.917,1 4.002,1.666 6.135,1.876 1.066,0.11 2.142,0.09 3.203,-0.047 0.532,-0.066 1.059,-0.168 1.578,-0.303 0.262,-0.058 0.515,-0.149 0.774,-0.222 0.237,-0.08 0.464,-0.168 0.69,-0.289 1.811,-0.938 3.218,-2.889 3.2,-4.963 0.002,-1.03 -0.308,-2.062 -0.834,-2.985 C 32.207,18.834 31.499,18.005 30.713,17.239 29.152,15.683 27.348,14.375 25.446,13.232 23.54,12.09 21.528,11.118 19.494,10.176 18.478,9.703 17.455,9.236 16.443,8.724 15.432,8.217 14.45,7.65 13.486,7.058 11.563,5.862 9.768,4.478 8.06,3.009 4.97,0.357 2.165,-2.584 -0.545,-5.6 -0.78,-5.624 -1.016,-5.643 -1.25,-5.669 -0.911,-3.761 -0.493,-1.869 0,0 m 27.74,-8.248 c -3.151,0.888 -6.343,1.69 -9.597,2.155 L 16.926,-5.9 c -0.406,0.058 -0.816,0.096 -1.223,0.145 -0.817,0.088 -1.633,0.193 -2.451,0.268 -1.64,0.115 -3.28,0.251 -4.926,0.253 -2.926,0.041 -5.858,-0.062 -8.773,-0.356 2.836,2.861 5.73,5.663 8.833,8.209 1.724,1.424 3.547,2.717 5.441,3.885 1.898,1.171 3.912,2.103 5.967,3.017 2.048,0.923 4.097,1.885 6.055,3.031 1.953,1.148 3.826,2.476 5.463,4.075 0.825,0.791 1.604,1.678 2.183,2.708 0.591,1.017 0.972,2.201 0.981,3.419 0.01,1.217 -0.363,2.427 -1.003,3.447 -0.647,1.02 -1.524,1.88 -2.582,2.5 -0.263,0.156 -0.555,0.287 -0.843,0.399 -0.277,0.092 -0.55,0.203 -0.833,0.28 -0.561,0.173 -1.132,0.31 -1.711,0.409 -1.156,0.211 -2.34,0.247 -3.51,0.166 -2.345,-0.166 -4.622,-0.87 -6.703,-1.902 C 13.115,25.964 9.708,22.657 7.038,18.96 5.689,17.123 4.485,15.144 3.539,13.064 2.59,10.986 1.852,8.833 1.205,6.666 0.013,2.619 -0.829,-1.51 -1.31,-5.675 -1.382,-5.683 -1.455,-5.688 -1.527,-5.696 -1.573,-5.702 -1.618,-5.71 -1.664,-5.715 c -0.45,1.558 -0.853,3.129 -1.207,4.709 -0.428,1.867 -0.796,3.748 -1.076,5.64 -0.278,1.892 -0.493,3.792 -0.583,5.696 -0.08,1.904 -0.042,3.802 0.115,5.698 0.159,1.892 0.448,3.774 0.921,5.601 0.456,1.831 1.11,3.612 2.021,5.243 0.912,1.624 2.109,3.095 3.612,4.154 1.496,1.056 3.317,1.646 5.138,1.649 0.893,-0.01 1.795,-0.205 2.586,-0.605 0.79,-0.402 1.454,-1.023 1.872,-1.801 0.424,-0.778 0.597,-1.687 0.612,-2.602 0.001,-0.918 -0.134,-1.847 -0.373,-2.755 -0.054,-0.215 -0.124,-0.424 -0.185,-0.636 0.293,0.261 0.59,0.515 0.894,0.764 0.219,0.851 0.36,1.731 0.376,2.628 0.003,0.998 -0.165,2.034 -0.645,2.959 -0.472,0.927 -1.257,1.689 -2.169,2.173 -0.916,0.481 -1.932,0.729 -2.956,0.747 -2.022,0.01 -4.018,-0.634 -5.665,-1.781 -1.649,-1.149 -2.937,-2.729 -3.895,-4.446 -1.925,-3.461 -2.687,-7.379 -2.966,-11.228 -0.15,-1.93 -0.103,-3.879 0.04,-5.805 0.155,-1.927 0.437,-3.837 0.781,-5.731 0.643,-3.494 1.556,-6.929 2.708,-10.278 -3.207,-0.392 -6.385,-1.017 -9.489,-1.891 -3.162,-0.898 -6.25,-2.029 -9.247,-3.341 -1.501,-0.65 -2.976,-1.356 -4.425,-2.107 -1.443,-0.76 -2.879,-1.544 -4.203,-2.498 2.888,1.497 5.872,2.774 8.931,3.83 3.058,1.057 6.19,1.867 9.335,2.541 6.289,1.332 12.682,2.201 19.112,2.143 1.606,0.008 3.21,-0.077 4.816,-0.151 0.801,-0.054 1.601,-0.137 2.401,-0.204 0.401,-0.038 0.802,-0.065 1.202,-0.113 l 1.195,-0.16 c 3.196,-0.378 6.357,-1.017 9.489,-1.785 6.255,-1.583 12.347,-3.866 18.199,-6.712 -5.581,3.345 -11.593,6.023 -17.868,7.922" />
          </g>
          <g
             transform="translate(24.9634,44.3641)"
             id="g3706"
             style="display:inline;fill:#6b1a00;fill-opacity:1;stroke:none;stroke-opacity:1"
             inkscape:label="rameček">
            <path
               inkscape:connector-curvature="0"
               id="path3708"
               style="fill:#6b1a00;fill-opacity:1;fill-rule:nonzero;stroke:none;stroke-opacity:1"
               d="M 0,0 45.903,-26.502 91.806,0 V 53.004 L 45.903,79.506 0,53.004 Z M 45.903,-28.812 -2,-1.154 V 54.159 L 45.903,81.815 93.806,54.159 V -1.154 Z" />
          </g>
          <g
             id="g4549"
             inkscape:label="napis"
             style="fill:#6b1a00;fill-opacity:1">
            <g
               style="fill:#6b1a00;fill-opacity:1;stroke:none;stroke-opacity:1"
               id="g3710"
               transform="translate(33.501,47.3617)">
              <path
                 d="m 0,0 c -0.171,0.044 -0.313,0.108 -0.425,0.189 -0.112,0.082 -0.202,0.184 -0.269,0.307 -0.196,0.358 -0.157,1.337 0.118,2.937 0.152,0.87 0.264,1.568 0.335,2.093 0.075,0.564 0.12,1.011 0.136,1.34 C -0.089,7.195 -0.104,7.4 -0.148,7.482 -0.187,7.551 -0.252,7.577 -0.347,7.56 -0.442,7.542 -0.646,7.448 -0.96,7.276 -1.658,6.894 -2.172,6.584 -2.503,6.348 -2.835,6.111 -3.079,5.889 -3.234,5.681 c -0.1,0.084 -0.183,0.165 -0.25,0.243 -0.067,0.077 -0.121,0.154 -0.162,0.229 -0.092,0.167 -0.1,0.318 -0.025,0.453 0.075,0.135 0.256,0.281 0.542,0.437 0.122,0.067 0.454,0.238 0.996,0.512 0.542,0.275 1.017,0.524 1.425,0.747 0.172,0.095 0.322,0.182 0.448,0.261 0.126,0.079 0.239,0.157 0.341,0.233 C 0.243,8.753 0.38,8.695 0.493,8.62 0.605,8.545 0.691,8.454 0.749,8.347 0.951,7.98 0.902,6.955 0.603,5.272 0.514,4.771 0.447,4.378 0.401,4.097 0.279,3.343 0.197,2.713 0.154,2.206 0.111,1.699 0.113,1.403 0.16,1.318 0.196,1.252 0.315,1.254 0.518,1.325 0.72,1.395 1.018,1.537 1.41,1.752 2.022,2.088 2.505,2.378 2.858,2.625 3.211,2.872 3.466,3.097 3.624,3.302 3.718,3.219 3.799,3.14 3.867,3.064 3.935,2.989 3.986,2.918 4.022,2.853 4.126,2.664 4.139,2.502 4.062,2.366 3.986,2.23 3.764,2.062 3.396,1.86 3.173,1.738 2.789,1.544 2.243,1.277 1.697,1.011 1.27,0.793 0.962,0.625 0.758,0.513 0.577,0.406 0.419,0.303 0.261,0.2 0.122,0.099 0,0"
                 style="fill:#6b1a00;fill-opacity:1;fill-rule:nonzero;stroke:none;stroke-opacity:1"
                 id="path3712"
                 inkscape:connector-curvature="0" />
            </g>
            <g
               style="fill:#6b1a00;fill-opacity:1;stroke:none;stroke-opacity:1"
               id="g3714"
               transform="translate(39.9805,50.9408)">
              <path
                 d="m 0,0 c -0.103,-0.138 -0.208,-0.252 -0.315,-0.345 -0.107,-0.092 -0.218,-0.164 -0.332,-0.217 -0.16,-0.072 -0.288,-0.079 -0.384,-0.019 -0.096,0.06 -0.204,0.221 -0.323,0.482 -0.068,0.149 -0.207,0.492 -0.416,1.026 -0.209,0.534 -0.399,0.989 -0.57,1.364 -0.186,0.407 -0.356,0.729 -0.512,0.965 -0.155,0.236 -0.317,0.423 -0.487,0.562 0.088,0.127 0.187,0.238 0.297,0.334 0.109,0.095 0.226,0.171 0.35,0.228 0.15,0.068 0.269,0.078 0.358,0.031 0.089,-0.049 0.179,-0.172 0.27,-0.37 0.023,-0.053 0.139,-0.344 0.346,-0.875 0.207,-0.532 0.417,-1.03 0.63,-1.496 0.2,-0.437 0.387,-0.788 0.562,-1.054 C -0.352,0.349 -0.176,0.144 0,0 M -2.84,6.113 C -2.755,5.927 -2.75,5.743 -2.824,5.56 -2.897,5.376 -3.034,5.239 -3.232,5.148 -3.405,5.07 -3.564,5.056 -3.709,5.107 -3.855,5.159 -3.966,5.268 -4.042,5.434 -4.125,5.617 -4.131,5.802 -4.06,5.99 c 0.072,0.188 0.201,0.324 0.386,0.409 0.169,0.078 0.332,0.089 0.489,0.035 0.157,-0.055 0.272,-0.162 0.345,-0.321"
                 style="fill:#6b1a00;fill-opacity:1;fill-rule:nonzero;stroke:none;stroke-opacity:1"
                 id="path3716"
                 inkscape:connector-curvature="0" />
            </g>
            <g
               style="fill:#6b1a00;fill-opacity:1;stroke:none;stroke-opacity:1"
               id="g3718"
               transform="translate(39.3877,55.9881)">
              <path
                 d="M 0,0 C 0.106,0.128 0.214,0.235 0.322,0.32 0.431,0.404 0.543,0.47 0.659,0.518 0.825,0.585 0.958,0.582 1.058,0.509 1.157,0.435 1.286,0.204 1.443,-0.184 L 1.519,-0.368 C 2.065,-1.711 2.433,-2.705 2.622,-3.349 2.81,-3.993 2.899,-4.511 2.888,-4.902 2.872,-5.365 2.764,-5.808 2.565,-6.231 2.366,-6.654 2.173,-6.903 1.988,-6.979 1.901,-7.014 1.822,-7.015 1.748,-6.981 c -0.074,0.034 -0.128,0.094 -0.163,0.18 -0.042,0.103 -0.007,0.249 0.106,0.438 0.068,0.116 0.117,0.212 0.145,0.285 0.167,0.435 0.21,0.93 0.129,1.485 -0.081,0.554 -0.32,1.321 -0.718,2.3 C 0.979,-1.637 0.746,-1.125 0.546,-0.758 0.347,-0.391 0.165,-0.138 0,0 M 0.589,2.258 C 0.666,2.069 0.664,1.884 0.583,1.704 0.501,1.524 0.359,1.393 0.157,1.311 -0.016,1.24 -0.174,1.234 -0.319,1.291 -0.464,1.348 -0.571,1.461 -0.64,1.63 -0.715,1.816 -0.713,2.001 -0.634,2.186 -0.555,2.371 -0.419,2.503 -0.227,2.581 -0.058,2.65 0.104,2.654 0.259,2.593 0.413,2.532 0.523,2.42 0.589,2.258"
                 style="fill:#6b1a00;fill-opacity:1;fill-rule:nonzero;stroke:none;stroke-opacity:1"
                 id="path3720"
                 inkscape:connector-curvature="0" />
            </g>
            <g
               style="fill:#6b1a00;fill-opacity:1;stroke:none;stroke-opacity:1"
               id="g3722"
               transform="translate(43.4409,55.5697)">
              <path
                 d="M 0,0 C 0.236,0.039 0.493,0.094 0.769,0.167 1.044,0.24 1.338,0.33 1.65,0.436 2.074,0.58 2.344,0.715 2.46,0.841 2.576,0.968 2.599,1.132 2.53,1.336 2.425,1.645 2.235,1.852 1.961,1.959 1.686,2.066 1.364,2.057 0.995,1.932 0.601,1.798 0.316,1.562 0.141,1.222 -0.035,0.882 -0.082,0.475 0,0 M 3.639,-0.993 C 3.745,-1.06 3.829,-1.126 3.892,-1.194 3.954,-1.261 3.998,-1.333 4.023,-1.407 4.086,-1.59 4,-1.787 3.767,-1.996 3.534,-2.206 3.197,-2.386 2.756,-2.536 1.946,-2.811 1.236,-2.805 0.626,-2.519 0.016,-2.232 -0.421,-1.7 -0.686,-0.92 -0.953,-0.133 -0.94,0.589 -0.647,1.246 -0.354,1.903 0.155,2.355 0.88,2.602 1.439,2.792 1.953,2.789 2.421,2.592 2.888,2.396 3.207,2.05 3.375,1.555 3.507,1.165 3.452,0.836 3.21,0.569 2.968,0.301 2.49,0.046 1.774,-0.197 1.507,-0.288 1.236,-0.37 0.964,-0.441 0.691,-0.513 0.418,-0.575 0.145,-0.626 l 0.024,-0.071 c 0.18,-0.529 0.478,-0.895 0.894,-1.097 0.417,-0.203 0.894,-0.213 1.429,-0.031 0.251,0.085 0.472,0.197 0.663,0.336 0.191,0.138 0.352,0.304 0.484,0.496"
                 style="fill:#6b1a00;fill-opacity:1;fill-rule:nonzero;stroke:none;stroke-opacity:1"
                 id="path3724"
                 inkscape:connector-curvature="0" />
            </g>
            <g
               style="fill:#6b1a00;fill-opacity:1;stroke:none;stroke-opacity:1"
               id="g3726"
               transform="translate(47.5244,59.1664)">
              <path
                 d="M 0,0 C 0.073,0.047 0.146,0.085 0.216,0.114 0.286,0.144 0.361,0.167 0.441,0.187 0.63,0.23 0.789,0.215 0.918,0.141 1.048,0.066 1.142,-0.063 1.2,-0.249 1.431,0.004 1.668,0.207 1.91,0.359 2.152,0.512 2.403,0.618 2.665,0.68 2.919,0.739 3.171,0.746 3.419,0.699 3.667,0.652 3.912,0.553 4.154,0.399 4.383,0.663 4.64,0.887 4.926,1.071 5.212,1.256 5.498,1.382 5.784,1.449 6.408,1.595 6.929,1.526 7.347,1.241 7.765,0.957 8.053,0.476 8.211,-0.2 8.234,-0.298 8.274,-0.492 8.332,-0.784 8.389,-1.076 8.44,-1.319 8.486,-1.515 8.591,-1.964 8.693,-2.306 8.792,-2.538 8.891,-2.771 9.004,-2.951 9.134,-3.079 8.979,-3.203 8.848,-3.297 8.739,-3.361 8.631,-3.425 8.532,-3.468 8.441,-3.489 8.277,-3.527 8.155,-3.513 8.075,-3.445 7.995,-3.378 7.927,-3.226 7.872,-2.988 7.821,-2.772 7.752,-2.422 7.667,-1.938 7.581,-1.455 7.508,-1.085 7.449,-0.831 7.302,-0.204 7.101,0.228 6.845,0.462 6.59,0.696 6.251,0.764 5.83,0.665 5.599,0.611 5.385,0.525 5.187,0.407 4.988,0.289 4.783,0.122 4.573,-0.093 4.657,-0.297 4.735,-0.514 4.805,-0.742 4.875,-0.97 4.958,-1.292 5.056,-1.706 L 5.184,-2.255 C 5.297,-2.736 5.398,-3.09 5.488,-3.318 5.578,-3.545 5.686,-3.729 5.81,-3.868 5.676,-3.984 5.553,-4.074 5.443,-4.136 5.333,-4.199 5.221,-4.244 5.11,-4.27 4.953,-4.306 4.834,-4.289 4.752,-4.215 4.671,-4.143 4.603,-3.989 4.548,-3.756 4.519,-3.63 4.462,-3.345 4.378,-2.899 4.293,-2.454 4.215,-2.074 4.142,-1.76 3.968,-1.021 3.768,-0.539 3.54,-0.312 3.313,-0.086 2.997,-0.021 2.592,-0.115 2.379,-0.165 2.173,-0.257 1.972,-0.39 1.772,-0.523 1.574,-0.7 1.379,-0.918 1.439,-1.209 1.517,-1.582 1.61,-2.036 1.704,-2.49 1.764,-2.771 1.789,-2.88 1.897,-3.343 2.006,-3.712 2.114,-3.987 2.223,-4.261 2.344,-4.482 2.479,-4.649 2.351,-4.76 2.229,-4.848 2.116,-4.913 2.003,-4.978 1.887,-5.025 1.768,-5.052 1.608,-5.09 1.487,-5.07 1.407,-4.994 1.326,-4.917 1.252,-4.734 1.185,-4.444 1.165,-4.361 1.104,-4.01 1.001,-3.393 0.899,-2.774 0.786,-2.203 0.663,-1.676 0.565,-1.261 0.463,-0.919 0.356,-0.65 0.249,-0.381 0.13,-0.165 0,0"
                 style="fill:#6b1a00;fill-opacity:1;fill-rule:nonzero;stroke:none;stroke-opacity:1"
                 id="path3728"
                 inkscape:connector-curvature="0" />
            </g>
            <g
               style="fill:#6b1a00;fill-opacity:1;stroke:none;stroke-opacity:1"
               id="g3730"
               transform="translate(57.9937,59.2552)">
              <path
                 d="m 0,0 c 0.239,-0.006 0.501,0 0.786,0.021 0.285,0.02 0.59,0.053 0.917,0.098 0.443,0.062 0.733,0.145 0.871,0.247 0.137,0.102 0.191,0.26 0.161,0.473 C 2.69,1.161 2.542,1.401 2.293,1.558 2.043,1.714 1.725,1.766 1.338,1.711 0.927,1.654 0.604,1.475 0.367,1.174 0.131,0.874 0.008,0.482 0,0 M 3.388,-1.657 C 3.48,-1.742 3.55,-1.823 3.599,-1.901 3.648,-1.979 3.678,-2.058 3.688,-2.135 3.715,-2.327 3.595,-2.504 3.326,-2.666 3.058,-2.829 2.693,-2.942 2.232,-3.006 1.385,-3.125 0.688,-2.987 0.143,-2.591 c -0.545,0.395 -0.875,1.001 -0.989,1.817 -0.115,0.822 0.033,1.529 0.443,2.12 C 0.008,1.937 0.593,2.285 1.352,2.391 1.937,2.473 2.441,2.374 2.863,2.093 3.286,1.812 3.533,1.413 3.606,0.896 3.663,0.488 3.548,0.175 3.26,-0.042 2.972,-0.26 2.454,-0.421 1.706,-0.526 1.426,-0.565 1.145,-0.594 0.864,-0.614 0.583,-0.633 0.303,-0.643 0.025,-0.642 l 0.01,-0.074 c 0.078,-0.554 0.302,-0.969 0.673,-1.245 0.372,-0.278 0.838,-0.377 1.398,-0.298 0.263,0.036 0.5,0.105 0.714,0.205 0.214,0.101 0.403,0.233 0.568,0.397"
                 style="fill:#6b1a00;fill-opacity:1;fill-rule:nonzero;stroke:none;stroke-opacity:1"
                 id="path3732"
                 inkscape:connector-curvature="0" />
            </g>
            <g
               style="fill:#6b1a00;fill-opacity:1;stroke:none;stroke-opacity:1"
               id="g3734"
               transform="translate(71.2998,64.5892)">
              <path
                 d="M 0,0 C -0.053,-0.236 -0.09,-0.477 -0.109,-0.723 -0.128,-0.969 -0.131,-1.237 -0.117,-1.527 -0.064,-2.683 0.058,-3.736 0.25,-4.688 0.44,-5.64 0.695,-6.459 1.014,-7.147 0.846,-7.249 0.688,-7.325 0.541,-7.376 0.392,-7.428 0.247,-7.457 0.104,-7.464 c -0.151,-0.007 -0.27,0.02 -0.359,0.08 -0.089,0.061 -0.156,0.162 -0.202,0.303 -0.026,0.085 -0.095,0.737 -0.209,1.956 -0.114,1.218 -0.25,2.407 -0.407,3.564 -0.682,-1.443 -1.398,-3.023 -2.146,-4.739 -0.136,-0.318 -0.23,-0.534 -0.282,-0.648 -0.062,-0.139 -0.124,-0.239 -0.188,-0.299 -0.064,-0.06 -0.138,-0.092 -0.224,-0.096 -0.172,-0.008 -0.358,0.18 -0.559,0.566 -0.047,0.087 -0.084,0.155 -0.111,0.204 -0.634,1.15 -1.169,2.108 -1.604,2.875 -0.435,0.767 -0.792,1.377 -1.071,1.83 -0.019,-0.908 -0.026,-2.021 -0.02,-3.338 0.005,-1.316 -0.024,-2.079 -0.086,-2.286 -0.03,-0.112 -0.08,-0.195 -0.149,-0.249 -0.07,-0.053 -0.165,-0.083 -0.287,-0.089 -0.093,-0.003 -0.207,0.013 -0.344,0.052 -0.136,0.038 -0.295,0.1 -0.479,0.185 0.247,0.71 0.422,1.55 0.524,2.519 0.102,0.969 0.126,2.04 0.072,3.213 -0.014,0.282 -0.041,0.544 -0.082,0.784 -0.042,0.24 -0.097,0.472 -0.164,0.694 0.113,0.109 0.218,0.19 0.314,0.24 0.096,0.052 0.2,0.08 0.311,0.085 0.347,0.016 0.94,-0.751 1.778,-2.3 0.318,-0.584 0.574,-1.049 0.769,-1.394 0.441,-0.783 0.742,-1.3 0.903,-1.55 0.16,-0.251 0.263,-0.375 0.31,-0.373 0.096,0.004 0.543,0.921 1.341,2.75 0.33,0.754 0.594,1.356 0.792,1.806 0.214,0.49 0.407,0.842 0.578,1.054 0.171,0.212 0.346,0.322 0.525,0.331 C -0.548,0.27 -0.446,0.251 -0.346,0.209 -0.245,0.167 -0.13,0.098 0,0"
                 style="fill:#6b1a00;fill-opacity:1;fill-rule:nonzero;stroke:none;stroke-opacity:1"
                 id="path3736"
                 inkscape:connector-curvature="0" />
            </g>
            <g
               style="fill:#6b1a00;fill-opacity:1;stroke:none;stroke-opacity:1"
               id="g3738"
               transform="translate(74.0796,60.2538)">
              <path
                 d="m 0,0 c 0.234,-0.05 0.493,-0.091 0.777,-0.123 0.284,-0.032 0.59,-0.055 0.919,-0.07 0.447,-0.019 0.747,0.008 0.901,0.084 0.154,0.076 0.236,0.221 0.245,0.436 C 2.857,0.652 2.755,0.915 2.539,1.114 2.321,1.313 2.018,1.422 1.628,1.439 1.213,1.458 0.862,1.34 0.575,1.088 0.288,0.835 0.096,0.473 0,0 M 3.03,-2.247 C 3.104,-2.346 3.159,-2.439 3.192,-2.525 3.226,-2.611 3.241,-2.693 3.238,-2.771 3.229,-2.965 3.079,-3.117 2.785,-3.228 2.492,-3.338 2.112,-3.383 1.647,-3.363 c -0.855,0.038 -1.514,0.301 -1.978,0.789 -0.464,0.489 -0.678,1.144 -0.642,1.967 0.036,0.83 0.311,1.498 0.822,2.003 C 0.361,1.903 1,2.139 1.765,2.105 2.355,2.079 2.833,1.89 3.197,1.537 3.561,1.184 3.732,0.746 3.709,0.224 3.69,-0.187 3.521,-0.474 3.198,-0.635 2.875,-0.797 2.336,-0.861 1.582,-0.828 c -0.283,0.013 -0.564,0.035 -0.844,0.067 -0.28,0.032 -0.557,0.074 -0.83,0.125 L -0.096,-0.71 c -0.025,-0.559 0.12,-1.008 0.435,-1.348 0.315,-0.34 0.755,-0.522 1.32,-0.547 0.265,-0.012 0.511,0.012 0.74,0.072 0.228,0.06 0.439,0.156 0.631,0.286"
                 style="fill:#6b1a00;fill-opacity:1;fill-rule:nonzero;stroke:none;stroke-opacity:1"
                 id="path3740"
                 inkscape:connector-curvature="0" />
            </g>
            <g
               style="fill:#6b1a00;fill-opacity:1;stroke:none;stroke-opacity:1"
               id="g3742"
               transform="translate(82.7075,57.9139)">
              <path
                 d="M 0,0 C 0.046,0.348 0.095,0.72 0.145,1.116 0.195,1.512 0.223,1.735 0.229,1.785 0.259,2.056 0.281,2.257 0.294,2.389 0.307,2.521 0.317,2.644 0.323,2.758 0.082,2.894 -0.145,3 -0.358,3.076 -0.571,3.152 -0.775,3.201 -0.971,3.223 -1.593,3.294 -2.108,3.155 -2.515,2.806 -2.922,2.458 -3.164,1.949 -3.239,1.28 -3.302,0.725 -3.202,0.269 -2.94,-0.089 c 0.262,-0.358 0.648,-0.565 1.157,-0.623 0.331,-0.037 0.641,0.003 0.932,0.119 C -0.56,-0.476 -0.277,-0.278 0,0 M 0.455,3.495 0.508,3.964 C 0.569,4.509 0.597,4.946 0.591,5.276 0.585,5.607 0.548,5.868 0.479,6.06 0.631,6.122 0.771,6.164 0.899,6.187 1.028,6.211 1.141,6.217 1.237,6.206 1.408,6.187 1.521,6.129 1.579,6.032 1.637,5.936 1.652,5.767 1.625,5.524 1.607,5.372 1.523,4.848 1.374,3.953 1.224,3.058 1.106,2.235 1.022,1.485 0.919,0.574 0.87,-0.091 0.875,-0.509 0.879,-0.928 0.933,-1.25 1.033,-1.473 0.868,-1.538 0.718,-1.582 0.586,-1.606 0.453,-1.631 0.333,-1.638 0.227,-1.625 c -0.143,0.016 -0.238,0.068 -0.288,0.156 -0.049,0.089 -0.063,0.233 -0.04,0.432 0.008,0.068 0.015,0.12 0.023,0.157 0.008,0.037 0.014,0.071 0.017,0.103 -0.312,-0.267 -0.626,-0.454 -0.943,-0.561 -0.317,-0.106 -0.659,-0.139 -1.025,-0.097 -0.709,0.08 -1.263,0.38 -1.66,0.901 -0.398,0.52 -0.555,1.153 -0.471,1.896 0.096,0.84 0.452,1.503 1.069,1.991 0.617,0.486 1.351,0.682 2.201,0.585 C -0.684,3.915 -0.468,3.867 -0.244,3.792 -0.02,3.719 0.213,3.619 0.455,3.495"
                 style="fill:#6b1a00;fill-opacity:1;fill-rule:nonzero;stroke:none;stroke-opacity:1"
                 id="path3744"
                 inkscape:connector-curvature="0" />
            </g>
            <g
               style="fill:#6b1a00;fill-opacity:1;stroke:none;stroke-opacity:1"
               id="g3746"
               transform="translate(85.979,59.0936)">
              <path
                 d="M 0,0 C 0.225,-0.082 0.476,-0.158 0.752,-0.229 1.029,-0.301 1.329,-0.367 1.653,-0.427 2.093,-0.508 2.394,-0.522 2.557,-0.469 2.72,-0.415 2.821,-0.283 2.86,-0.072 2.919,0.249 2.856,0.523 2.668,0.75 2.481,0.979 2.196,1.128 1.812,1.199 1.404,1.275 1.04,1.208 0.72,0.997 0.401,0.787 0.161,0.455 0,0 M 2.688,-2.646 C 2.749,-2.755 2.789,-2.854 2.811,-2.944 2.833,-3.034 2.836,-3.117 2.822,-3.195 2.787,-3.385 2.616,-3.514 2.31,-3.583 2.004,-3.652 1.622,-3.644 1.165,-3.559 c -0.842,0.156 -1.458,0.508 -1.851,1.056 -0.391,0.548 -0.512,1.227 -0.362,2.036 0.152,0.817 0.516,1.441 1.093,1.871 C 0.622,1.834 1.287,1.979 2.04,1.839 2.621,1.732 3.067,1.478 3.379,1.078 3.691,0.677 3.799,0.22 3.704,-0.293 3.629,-0.699 3.42,-0.958 3.079,-1.074 2.737,-1.188 2.194,-1.177 1.452,-1.04 1.173,-0.988 0.898,-0.927 0.625,-0.856 0.353,-0.786 0.084,-0.706 -0.18,-0.617 L -0.193,-0.69 c -0.102,-0.55 -0.021,-1.015 0.243,-1.395 0.265,-0.381 0.675,-0.623 1.231,-0.726 0.261,-0.048 0.509,-0.058 0.743,-0.031 0.235,0.028 0.456,0.093 0.664,0.196"
                 style="fill:#6b1a00;fill-opacity:1;fill-rule:nonzero;stroke:none;stroke-opacity:1"
                 id="path3748"
                 inkscape:connector-curvature="0" />
            </g>
            <g
               style="fill:#6b1a00;fill-opacity:1;stroke:none;stroke-opacity:1"
               id="g3750"
               transform="translate(91.2979,60.2435)">
              <path
                 d="M 0,0 C 0.087,0.005 0.168,0.003 0.245,-0.005 0.32,-0.014 0.397,-0.029 0.477,-0.052 0.663,-0.105 0.794,-0.195 0.872,-0.323 0.949,-0.452 0.968,-0.61 0.928,-0.8 c 0.325,0.108 0.631,0.17 0.916,0.186 0.285,0.015 0.557,-0.014 0.816,-0.087 0.251,-0.072 0.474,-0.188 0.668,-0.35 0.194,-0.161 0.36,-0.367 0.497,-0.618 0.328,0.118 0.662,0.189 1.001,0.211 0.34,0.023 0.651,-0.006 0.933,-0.086 C 6.376,-1.72 6.797,-2.034 7.024,-2.485 7.251,-2.938 7.27,-3.497 7.08,-4.166 7.052,-4.262 6.993,-4.452 6.901,-4.734 6.809,-5.017 6.736,-5.255 6.681,-5.448 6.554,-5.892 6.478,-6.24 6.451,-6.491 6.424,-6.742 6.436,-6.955 6.487,-7.129 6.291,-7.163 6.13,-7.182 6.005,-7.185 5.879,-7.188 5.771,-7.177 5.682,-7.152 5.52,-7.105 5.42,-7.034 5.383,-6.936 c -0.037,0.099 -0.022,0.265 0.045,0.499 0.06,0.213 0.171,0.552 0.331,1.017 0.16,0.464 0.276,0.822 0.347,1.074 0.177,0.619 0.21,1.094 0.102,1.423 -0.11,0.329 -0.373,0.553 -0.79,0.672 C 5.191,-2.187 4.962,-2.158 4.731,-2.165 4.5,-2.172 4.24,-2.218 3.952,-2.303 3.926,-2.523 3.889,-2.75 3.839,-2.983 3.79,-3.217 3.706,-3.538 3.59,-3.948 L 3.435,-4.49 C 3.3,-4.966 3.216,-5.325 3.185,-5.567 3.153,-5.809 3.158,-6.021 3.199,-6.205 3.024,-6.241 2.874,-6.259 2.747,-6.26 2.62,-6.261 2.501,-6.246 2.392,-6.215 c -0.156,0.044 -0.251,0.118 -0.287,0.221 -0.036,0.103 -0.021,0.27 0.045,0.501 0.036,0.124 0.124,0.401 0.267,0.831 0.144,0.431 0.259,0.801 0.348,1.111 0.207,0.73 0.267,1.249 0.177,1.557 C 2.854,-1.686 2.609,-1.474 2.209,-1.36 2,-1.301 1.774,-1.28 1.535,-1.3 1.294,-1.319 1.036,-1.376 0.759,-1.473 0.671,-1.756 0.558,-2.12 0.418,-2.562 0.279,-3.005 0.195,-3.279 0.165,-3.386 0.034,-3.844 -0.051,-4.22 -0.089,-4.512 c -0.039,-0.292 -0.04,-0.544 -0.003,-0.756 -0.166,-0.034 -0.315,-0.053 -0.446,-0.054 -0.13,-0.002 -0.254,0.013 -0.372,0.047 -0.158,0.045 -0.254,0.121 -0.287,0.227 -0.033,0.106 -0.009,0.302 0.072,0.588 0.024,0.083 0.141,0.418 0.352,1.008 0.211,0.59 0.39,1.145 0.538,1.665 0.117,0.41 0.193,0.758 0.231,1.046 C 0.033,-0.454 0.034,-0.207 0,0"
                 style="fill:#6b1a00;fill-opacity:1;fill-rule:nonzero;stroke:none;stroke-opacity:1"
                 id="path3752"
                 inkscape:connector-curvature="0" />
            </g>
            <g
               style="fill:#6b1a00;fill-opacity:1;stroke:none;stroke-opacity:1"
               id="g3754"
               transform="translate(100.4082,52.4481)">
              <path
                 d="m 0,0 c -0.07,-0.184 -0.2,-0.313 -0.391,-0.386 -0.19,-0.073 -0.391,-0.07 -0.602,0.011 -0.187,0.07 -0.32,0.187 -0.399,0.349 -0.078,0.162 -0.081,0.337 -0.01,0.524 0.076,0.201 0.206,0.338 0.389,0.412 0.183,0.074 0.384,0.07 0.601,-0.013 C -0.208,0.82 -0.069,0.701 0.004,0.541 0.078,0.381 0.077,0.201 0,0"
                 style="fill:#6b1a00;fill-opacity:1;fill-rule:nonzero;stroke:none;stroke-opacity:1"
                 id="path3756"
                 inkscape:connector-curvature="0" />
            </g>
            <g
               style="fill:#6b1a00;fill-opacity:1;stroke:none;stroke-opacity:1"
               id="g3758"
               transform="translate(106.4189,53.8885)">
              <path
                 d="M 0,0 C -0.093,0.135 -0.192,0.247 -0.297,0.335 -0.403,0.424 -0.529,0.501 -0.676,0.567 -1.173,0.789 -1.667,0.795 -2.156,0.586 -2.646,0.377 -3.012,0 -3.256,-0.546 -3.477,-1.04 -3.505,-1.497 -3.342,-1.917 c 0.164,-0.419 0.496,-0.741 0.996,-0.965 0.216,-0.096 0.425,-0.154 0.628,-0.174 0.202,-0.02 0.408,-0.003 0.618,0.053 0.022,-0.108 0.032,-0.206 0.029,-0.296 -0.002,-0.089 -0.019,-0.168 -0.05,-0.236 -0.091,-0.206 -0.284,-0.317 -0.576,-0.331 -0.293,-0.014 -0.644,0.07 -1.053,0.253 -0.715,0.32 -1.206,0.784 -1.47,1.395 -0.265,0.61 -0.251,1.244 0.043,1.901 0.356,0.798 0.927,1.347 1.712,1.647 0.785,0.3 1.565,0.277 2.34,-0.068 C 0.16,1.134 0.353,0.999 0.456,0.855 0.558,0.711 0.572,0.556 0.498,0.39 0.459,0.304 0.401,0.231 0.323,0.17 0.245,0.109 0.137,0.052 0,0"
                 style="fill:#6b1a00;fill-opacity:1;fill-rule:nonzero;stroke:none;stroke-opacity:1"
                 id="path3760"
                 inkscape:connector-curvature="0" />
            </g>
            <g
               style="display:inline;fill:#6b1a00;fill-opacity:1;stroke:none;stroke-opacity:1"
               id="g3762"
               transform="translate(105.5005,49.4989)">
              <path
                 d="M 0,0 C -0.027,0.084 -0.041,0.164 -0.039,0.238 -0.038,0.312 -0.018,0.384 0.02,0.454 0.074,0.554 0.634,0.84 1.7,1.31 2.766,1.78 3.745,2.246 4.638,2.708 4.548,2.76 4.427,2.83 4.274,2.917 4.029,3.057 3.87,3.147 3.797,3.186 3.445,3.377 3.132,3.525 2.86,3.632 2.588,3.738 2.377,3.793 2.229,3.796 2.245,3.909 2.265,4.009 2.287,4.097 2.31,4.184 2.336,4.255 2.365,4.308 2.44,4.447 2.536,4.521 2.653,4.531 2.771,4.541 2.942,4.485 3.169,4.362 3.352,4.263 3.638,4.103 4.029,3.879 4.419,3.656 4.721,3.487 4.936,3.371 5.222,3.216 5.435,3.108 5.575,3.047 5.715,2.985 5.843,2.938 5.959,2.904 5.979,2.807 5.987,2.721 5.982,2.647 5.976,2.573 5.958,2.507 5.928,2.451 5.848,2.302 5.268,1.992 4.188,1.519 3.108,1.046 2.157,0.599 1.335,0.176 1.375,0.154 1.435,0.12 1.512,0.075 1.68,-0.028 1.789,-0.094 1.84,-0.121 L 2.052,-0.236 C 2.55,-0.505 2.939,-0.698 3.22,-0.815 3.5,-0.932 3.738,-1.002 3.933,-1.026 3.922,-1.114 3.906,-1.196 3.886,-1.272 3.865,-1.349 3.841,-1.412 3.813,-1.462 3.73,-1.617 3.605,-1.695 3.439,-1.697 3.273,-1.699 3.047,-1.622 2.761,-1.467 2.748,-1.46 2.537,-1.338 2.126,-1.1 1.715,-0.862 1.308,-0.634 0.905,-0.416 0.745,-0.329 0.591,-0.252 0.444,-0.185 0.297,-0.118 0.149,-0.056 0,0"
                 style="fill:#6b1a00;fill-opacity:1;fill-rule:nonzero;stroke:none;stroke-opacity:1"
                 id="path3764"
                 inkscape:connector-curvature="0" />
            </g>
          </g>
        </g>
      </g>
    </g>
  </g>
</svg>
